<?xml version="1.0" encoding="utf-8"?>
<!-- Generator: Adobe Illustrator 17.0.0, SVG Export Plug-In . SVG Version: 6.00 Build 0)  -->
<!DOCTYPE svg PUBLIC "-//W3C//DTD SVG 1.1//EN" "http://www.w3.org/Graphics/SVG/1.1/DTD/svg11.dtd">
<svg version="1.1" id="Layer_1" xmlns="http://www.w3.org/2000/svg" xmlns:xlink="http://www.w3.org/1999/xlink" x="0px" y="0px"
	 width="640px" height="480px" viewBox="0 0 640 480" enable-background="new 0 0 640 480" xml:space="preserve">
<path fill="#F9EC31" d="M238.019,224.169c0.511-2.074,5.167-3,8-3s5.92,0.167,10.543-2c4.623-2.167,17.957-8.333,18.79-11.333
	c0.833-3,11-27.5,10.667-29c-0.333-1.5,18.729,7.342,21.281,7.171c2.552-0.171,17.052-17.171,19.386-19.838s13.5-17.667,14-17.333
	c0.5,0.333-0.833,15.833,0.833,21.167c1.667,5.333,6.167,22.5,8.333,23c2.167,0.5,16-1.333,20.167-3
	c4.167-1.667,13.5-4.005,14.167-3.503s-4.167,12.503-4.167,16.669s-3.667,25.333-1.833,31s16.333,15.167,16.333,15.167
	c1.333,0.667,8,2.667,8.167,3.167s-8.167,3.667-9.833,4c-1.667,0.333-6.667,3.833-8.5,8.333c-1.833,4.5-7.333,8.833-9,10.5
	c-1.667,1.667-5.5,2-5.167,5s4.667,10.167-2,9.833c-6.667-0.333-8.61,2.333-8.388,4.833s7.055,25.5,4.722,24.667
	c-2.333-0.833-15.333-10-27-7.833c-11.667,2.167-14.667,15-19,16.5c-4.333,1.5-16.833-12.667-20.667-12.333
	c-3.833,0.333-25.667,2.833-29.5,6.667c-3.833,3.833-9.144,8.5-10.322,8c-1.178-0.5,6.656-15.167,5.322-18.167
	c-1.333-3,2.356-15.5-5.322-19.667c-7.678-4.167-15.844-8-15.678-8.667c0.167-0.667,9.333-10,10.333-13s2.667-18,0.5-22.167
	C251.019,244.836,236.278,231.233,238.019,224.169z"/>
<path fill="#BBBDBF" d="M244.852,227.919c2.278-0.766,17.443-4.708,21.365-6.655c3.922-1.946,15.234-7.486,15.941-10.181
	c0.707-2.695,7.31-23.901,7.027-25.248c-0.283-1.347,17.911,5.793,20.077,5.639c2.165-0.154,13.666-16.432,16.446-17.82
	c2.977-1.486,9.886-13.32,10.31-13.021s0.86,11.673,2.274,16.464c1.414,4.791,5.232,20.211,7.07,20.66s14.204,1.032,17.739-0.465
	s12.809-5.327,13.375-4.875s-2.125,10.257-2.125,14s0,17.506-0.5,25.75c-0.322,5.313,9.405,16.193,9.405,16.193
	c1.131,0.599,6.787,2.395,6.928,2.845s-4.42,3.996-5.834,4.295c-1.414,0.299-5.695,5.374-7.25,9.417
	c-1.555,4.042-8.691,5.302-10.105,6.799s-4.666,1.797-4.383,4.491c0.283,2.695,7.645,11.009,1.989,10.71
	c-5.656-0.299-10.99,0.219-10.802,2.465c0.188,2.246,5.985,22.906,4.006,22.158s-13.009-8.983-22.906-7.037
	c-9.898,1.946-15.121,15.066-18.797,16.414c-3.676,1.347-14.998-10.049-18.25-9.75c-3.252,0.299-17.748-3.443-21,0
	c-3.252,3.443-8.876,5.449-9.875,5c-0.999-0.449,1.404-20.975,0.273-23.669s-4.648-2.846-5.94-3.84
	c-5.953-4.582-10.326-7.186-10.185-7.785s10.955-10.205,11.803-12.9c0.848-2.695-0.988-16.063-2.826-19.806
	S241.557,229.027,244.852,227.919z"/>
<radialGradient id="SVGID_1_" cx="314.6449" cy="250.6727" r="62.3415" gradientUnits="userSpaceOnUse">
	<stop  offset="0" style="stop-color:#F9EC31"/>
	<stop  offset="1" style="stop-color:#FFF100"/>
</radialGradient>
<path opacity="0.9" fill="url(#SVGID_1_)" d="M275.519,210.336c3.055-2.592,7.833-9.833,11.333-11.333s19.167-13.167,23.333-14.333
	s28.333,0.667,36.667,8c8.333,7.333,20.667,13.5,22.333,22.333c1.667,8.833,5,24.833,2.833,40.5
	c-2.167,15.667-4.167,23.167-9.5,30.333c-5.333,7.167-18.167,20.167-25.667,21.5s-5.667,13.667-27.5,8.333
	c-21.833-5.333-41.5-16.167-45.833-23.167c-4.333-7-7.846-15.553-6.756-19.693c1.09-4.14,2.173-15.223,1.715-18.765
	c-0.458-3.542-0.458-1.708-0.458-3.542C258.019,248.669,263.002,220.956,275.519,210.336z"/>
<path fill="#D0D2D3" d="M288.019,224.003c3.356,0.36,11.903,10.273,11.07,16.667c-1.198,9.194-6.236,14.835-16.736,14.833
	c-5.523-0.001-12.667-7.814-11.5-15.74C272.019,231.836,278.685,223.003,288.019,224.003z"/>
<path fill="#D0D2D3" stroke="#58595B" stroke-miterlimit="10" d="M261.6,261.695c-1.398-2.936,0.627-7.682-3.123-7.651
	c-1.244,0.01-1.375,2.75-3.875,3.125s-3.723-0.419-4.473,1.331s4.538,6,4.038,9c-0.189,1.137-3.19,0.044-3.44,1.419
	s0.75,4.125,2.875,4.5s9.257,0.99,11.103-1.69C266.908,268.532,262.85,264.32,261.6,261.695z"/>
<ellipse fill="#404041" cx="283.938" cy="242.169" rx="9.813" ry="10"/>
<ellipse fill="#E6E7E8" cx="282.289" cy="242.169" rx="6.291" ry="6.021"/>
</svg>
