<?xml version="1.0" encoding="utf-8"?>
<!-- Generator: Adobe Illustrator 17.0.0, SVG Export Plug-In . SVG Version: 6.00 Build 0)  -->
<!DOCTYPE svg PUBLIC "-//W3C//DTD SVG 1.1//EN" "http://www.w3.org/Graphics/SVG/1.1/DTD/svg11.dtd">
<svg version="1.1" id="Layer_1" xmlns="http://www.w3.org/2000/svg" xmlns:xlink="http://www.w3.org/1999/xlink" x="0px" y="0px"
	 width="640px" height="480px" viewBox="0 0 640 480" enable-background="new 0 0 640 480" xml:space="preserve">
<path fill="#006838" d="M238.167,223.5c0.511-2.074,5.167-3,8-3c2.833,0,5.92,0.167,10.543-2c4.623-2.167,17.957-8.333,18.79-11.333
	s11-27.5,10.667-29c-0.333-1.5,18.729,7.342,21.281,7.171c2.552-0.171,17.052-17.171,19.386-19.838
	c2.333-2.667,13.5-17.667,14-17.333c0.5,0.333-0.833,15.833,0.833,21.167c1.667,5.333,6.167,22.5,8.333,23s16-1.333,20.167-3
	c4.167-1.667,13.5-4.005,14.167-3.503c0.667,0.503-4.167,12.503-4.167,16.669s-3.667,25.333-1.833,31
	c1.833,5.667,16.333,15.167,16.333,15.167c1.333,0.667,8,2.667,8.167,3.167c0.167,0.5-8.167,3.667-9.833,4s-6.667,3.833-8.5,8.333
	s-7.333,8.833-9,10.5c-1.667,1.667-5.5,2-5.167,5c0.333,3,4.667,10.167-2,9.833c-6.667-0.333-8.61,2.333-8.388,4.833
	c0.222,2.5,7.055,25.5,4.722,24.667c-2.333-0.833-15.333-10-27-7.833c-11.667,2.167-14.667,15-19,16.5
	c-4.333,1.5-16.833-12.667-20.667-12.333c-3.833,0.333-25.667,2.833-29.5,6.667s-9.144,8.5-10.322,8s6.656-15.167,5.322-18.167
	s2.356-15.5-5.322-19.667c-7.678-4.167-15.844-8-15.678-8.667s9.333-10,10.333-13s2.667-18,0.5-22.167
	C251.167,244.167,236.426,230.563,238.167,223.5z"/>
<path fill="#37B34A" d="M245,227.25c2.278-0.766,17.443-4.708,21.365-6.655c3.922-1.946,15.234-7.486,15.941-10.181
	c0.707-2.695,7.31-23.901,7.027-25.248c-0.283-1.347,17.911,5.793,20.077,5.639c2.165-0.154,13.666-16.432,16.446-17.82
	c2.977-1.486,9.886-13.32,10.31-13.021s0.86,11.673,2.274,16.464c1.414,4.791,5.232,20.211,7.07,20.66s14.204,1.032,17.739-0.465
	s12.809-5.327,13.375-4.875s-2.125,10.257-2.125,14s0,17.506-0.5,25.75c-0.322,5.313,9.405,16.193,9.405,16.193
	c1.131,0.599,6.787,2.395,6.928,2.845s-4.42,3.996-5.834,4.295c-1.414,0.299-5.695,5.374-7.25,9.417s-8.691,5.302-10.105,6.799
	c-1.414,1.497-4.666,1.797-4.383,4.491c0.283,2.695,7.645,11.009,1.989,10.71s-10.99,0.219-10.802,2.465s5.985,22.906,4.006,22.158
	c-1.98-0.749-13.009-8.983-22.906-7.037c-9.898,1.946-15.121,15.066-18.797,16.414s-14.998-10.049-18.25-9.75s-17.748-3.443-21,0
	s-8.876,5.449-9.875,5s2.881-20.805,1.75-23.5s0.027-4.237-1.265-5.231c-5.953-4.582-13.442-7.186-13.301-7.785
	c0.141-0.599,7.918-8.983,8.767-11.678s-0.988-16.063-2.826-19.806S241.705,228.358,245,227.25z"/>
<radialGradient id="SVGID_1_" cx="314.7931" cy="250.0034" r="62.3415" gradientUnits="userSpaceOnUse">
	<stop  offset="0" style="stop-color:#009345"/>
	<stop  offset="1" style="stop-color:#006838"/>
</radialGradient>
<path opacity="0.9" fill="url(#SVGID_1_)" d="M275.667,209.667c3.055-2.592,7.833-9.833,11.333-11.333s19.167-13.167,23.333-14.333
	c4.167-1.167,28.333,0.667,36.667,8s20.667,13.5,22.333,22.333c1.667,8.833,5,24.833,2.833,40.5C370,270.5,368,278,362.667,285.167
	c-5.333,7.167-18.167,20.167-25.667,21.5c-7.5,1.333-5.667,13.667-27.5,8.333s-41.5-16.167-45.833-23.167
	c-4.333-7-7.846-15.553-6.756-19.693c1.09-4.14,2.173-15.223,1.715-18.765c-0.458-3.542-0.458-1.708-0.458-3.542
	C258.167,248,263.15,220.286,275.667,209.667z"/>
<path fill="#D0D2D3" d="M288.167,223.333c3.356,0.36,11.903,10.273,11.07,16.667c-1.198,9.194-6.236,14.835-16.736,14.833
	c-5.523-0.001-12.667-7.814-11.5-15.74C272.167,231.167,278.833,222.333,288.167,223.333z"/>
<path fill="#D0D2D3" stroke="#58595B" stroke-miterlimit="10" d="M265,264.417c-1.398-2.936,0.917-5.583-1.583-7.667
	c-0.956-0.797-5.5-1.959-8-1.584c-2.5,0.375-3.667-0.666-4.417,1.084s0.333,3.792,0.833,4.167s2.317,2.696,2.067,3.821
	s-4.494,3.013-4.484,7.429c0.003,1.398,4.042-0.542,6.167-0.167c1.246,0.22,5.819,2.978,7.583,0.417
	C265.37,268.719,266.25,267.042,265,264.417z"/>
<ellipse fill="#404041" cx="283.75" cy="241.5" rx="6.583" ry="10"/>
<ellipse fill="#E6E7E8" cx="282.75" cy="241.58" rx="4.478" ry="4.286"/>
<path fill="#404041" d="M288.167,223.333c3.356,0.36,13.167,10.954,10.667,16.894c-1.273,3.025-6.835-5.832-13.732-5.933
	c-6.648-0.097-14.674,8.689-14.101,4.799C272.167,231.167,278.833,222.333,288.167,223.333z"/>
</svg>
