<?xml version="1.0" encoding="utf-8"?>
<!-- Generator: Adobe Illustrator 17.0.0, SVG Export Plug-In . SVG Version: 6.00 Build 0)  -->
<!DOCTYPE svg PUBLIC "-//W3C//DTD SVG 1.1//EN" "http://www.w3.org/Graphics/SVG/1.1/DTD/svg11.dtd">
<svg version="1.1" id="Layer_1" xmlns="http://www.w3.org/2000/svg" xmlns:xlink="http://www.w3.org/1999/xlink" x="0px" y="0px"
	 width="640px" height="480px" viewBox="0 0 640 480" enable-background="new 0 0 640 480" xml:space="preserve">
<path fill="#224099" d="M241.167,224c0.511-2.074,5.167-3,8-3c2.833,0,5.92,0.167,10.543-2c4.623-2.167,17.957-8.333,18.79-11.333
	s11-27.5,10.667-29c-0.333-1.5,18.729,7.342,21.281,7.171C313,185.667,327.5,168.667,329.833,166c2.333-2.667,13.5-17.667,14-17.333
	c0.5,0.333-0.833,15.833,0.833,21.167c1.667,5.333,6.167,22.5,8.333,23s16-1.333,20.167-3c4.167-1.667,13.5-4.005,14.167-3.503
	c0.667,0.503-4.167,12.503-4.167,16.669s-3.667,25.333-1.833,31c1.833,5.667,16.333,15.167,16.333,15.167
	c1.333,0.667,2.833,2.417,3,2.917c0.167,0.5-3.333,2.25-5,2.583c-1.667,0.333-5.967,4.767-10.667,6
	c-3.5,0.918-6.667,6.667-8.333,8.333c-1.667,1.667-3.667,8.167-3.333,11.167c0.333,3,4.667,10.167-2,9.833
	c-6.667-0.333-8.61,2.333-8.388,4.833c0.222,2.5,7.055,25.5,4.722,24.667c-2.333-0.833-15.333-10-27-7.833
	c-11.667,2.167-14.667,15-19,16.5c-4.333,1.5-16.833-12.667-20.667-12.333c-3.833,0.333-25.667,2.833-29.5,6.667
	s-9.144,8.5-10.322,8s6.656-15.167,5.322-18.167s2.356-15.5-5.322-19.667c-7.678-4.167-15.844-8-15.678-8.667s9.333-10,10.333-13
	c1-3,2.667-18,0.5-22.167C254.167,244.667,239.426,231.063,241.167,224z"/>
<path fill="#A6A8AB" d="M248,227.75c2.278-0.766,17.443-4.708,21.365-6.655c3.922-1.946,15.234-7.486,15.941-10.181
	c0.707-2.695,7.31-23.901,7.027-25.248c-0.283-1.347,17.911,5.793,20.077,5.639c2.165-0.154,13.666-16.432,16.446-17.82
	c2.977-1.486,9.886-13.32,10.31-13.021s0.86,11.673,2.274,16.464c1.414,4.791,5.232,20.211,7.07,20.66s14.204,1.032,17.739-0.465
	s12.809-5.327,13.375-4.875s-2.125,10.257-2.125,14s0,17.506-0.5,25.75c-0.322,5.313,9.405,16.193,9.405,16.193
	c1.131,0.599,6.787,2.395,6.928,2.845s-4.42,3.996-5.834,4.295c-1.414,0.299-12.81,8.215-14.365,12.258s-1.576,2.461-2.99,3.958
	c-1.414,1.497-4.666,1.797-4.383,4.491c0.283,2.695,7.645,11.009,1.989,10.71s-10.99,0.219-10.802,2.465s5.985,22.906,4.006,22.158
	c-1.98-0.749-13.009-8.983-22.906-7.037c-9.898,1.946-15.121,15.066-18.797,16.414S304.252,310.701,301,311
	s-18.38-0.376-21.633,3.068c-3.252,3.443-10.118,5.507-11.117,5.057s4.756-12.43,3.625-15.125s0.027-15.737-1.265-16.731
	c-5.953-4.582-13.442-7.186-13.301-7.785s7.918-8.983,8.767-11.678s-0.988-16.063-2.826-19.806S244.705,228.858,248,227.75z"/>
<radialGradient id="SVGID_1_" cx="317.7931" cy="250.5034" r="62.3415" gradientUnits="userSpaceOnUse">
	<stop  offset="0" style="stop-color:#1B75BB"/>
	<stop  offset="1" style="stop-color:#2B388F"/>
</radialGradient>
<path fill="url(#SVGID_1_)" d="M278.667,210.167c3.055-2.592,7.833-9.833,11.333-11.333s19.167-13.167,23.333-14.333
	c4.167-1.167,28.333,0.667,36.667,8s20.667,13.5,22.333,22.333c1.667,8.833,5,24.833,2.833,40.5C373,271,371,278.5,365.667,285.667
	c-5.333,7.167-18.167,20.167-25.667,21.5c-7.5,1.333-5.667,13.667-27.5,8.333s-41.5-16.167-45.833-23.167
	c-4.333-7-7.846-15.553-6.756-19.693c1.09-4.14,2.173-15.223,1.715-18.765c-0.458-3.542-0.458-1.708-0.458-3.542
	C261.167,248.5,266.15,220.786,278.667,210.167z"/>
<path fill="#D0D2D3" d="M291.167,223.833c3.356,0.36,11.903,10.273,11.07,16.667c-1.198,9.194-6.236,14.835-16.736,14.833
	c-5.523-0.001-12.667-7.814-11.5-15.74C275.167,231.667,281.833,222.833,291.167,223.833z"/>
<path fill="#404041" d="M291.167,222.833c3.356,0.36,12.708,12.667,11.708,17.827c-0.624,3.222-5.679-3.443-13.875-12.41
	c-7.541-8.25-15.573,14.233-15,10.343C275.167,230.667,281.833,221.833,291.167,222.833z"/>
<path fill="#D0D2D3" stroke="#58595B" stroke-miterlimit="10" d="M263.167,263.752c0.381-3.23,2.208-9.907-1.542-9.877
	c-1.244,0.01-1.375,2.75-3.875,3.125s-3.25,0.625-4,2.375s-0.995,3.595,0,5.125c0.813,1.25,3.563,0.063,3.313,1.188
	s-2.938,1.688-3.188,3.063s0.75,4.125,2.875,4.5s5.07,1.097,6.917-1.583C265.87,268.469,262.835,266.559,263.167,263.752z"/>
<ellipse fill="#404041" cx="287.833" cy="242" rx="7.667" ry="10"/>
<ellipse fill="#E6E7E8" cx="285.938" cy="238.417" rx="4.478" ry="4.286"/>
</svg>
