<?xml version="1.0" encoding="utf-8"?>
<!-- Generator: Adobe Illustrator 17.0.0, SVG Export Plug-In . SVG Version: 6.00 Build 0)  -->
<!DOCTYPE svg PUBLIC "-//W3C//DTD SVG 1.1//EN" "http://www.w3.org/Graphics/SVG/1.1/DTD/svg11.dtd">
<svg version="1.1" id="Layer_1" xmlns="http://www.w3.org/2000/svg" xmlns:xlink="http://www.w3.org/1999/xlink" x="0px" y="0px"
	 width="640px" height="480px" viewBox="0 0 640 480" enable-background="new 0 0 640 480" xml:space="preserve">
<path fill="#A87C4F" stroke="#231F20" stroke-miterlimit="10" d="M357.065,169.717c0,0,8.217-13.717,13.016-16.035
	c4.799-2.318,4.424,0.392,3.786,6.795c-0.638,6.403-5.797,18.193-8.14,20.454C363.384,183.193,363.166,173.754,357.065,169.717z"/>
<path fill="#C3996B" stroke="#231F20" stroke-miterlimit="10" d="M296.221,211.424c0,0-5.449-4.772-8.963-4.435
	s-2.277-1.036-6.189,0.67s-5.03,1.711-5.132,4.171s-2.207,4.459,1.269,8.145c3.476,3.686,10.869,4.528,12.772,6.32
	c1.903,1.792,11.425,22.961,16.173,27.263c4.748,4.302,26.135,24.365,44.978,5.658c18.843-18.707,1.391-48.263-8.006-49.566
	s-12.589,16.677-22.875,13.662C309.96,220.298,304.805,220.57,296.221,211.424z"/>
<path fill="#603813" stroke="#231F20" stroke-miterlimit="10" d="M408.965,353.518c0,0,9.25-33,10.5-45.5s6.25-42.5-19.75-58.25
	s-23.943-25.465-26.693-30.715s-1.361-21.497-5.624-23.598c-4.264-2.101-30.868-0.477-26.183,6.313
	c4.685,6.79-10.684,80.497,14.408,92.874C380.715,307.018,406.465,354.268,408.965,353.518z"/>
<path fill="#A87C4F" stroke="#231F20" stroke-miterlimit="10" d="M334.215,353.018c0,0-11.583,2.103-13.297-2.5
	c-0.436-1.172,2.297-4.5,3.797-4.5s2.75,0.184,4.306-0.066s2.556-2,4.056-2.25s5.139-0.684,7.389,1.316s10.25,4.139,11.5,2.695
	s-17.75-16.445-12.25-33.195s17-21.25,23.25-22.25s13.25,59.083,7.75,61.417S334.215,353.018,334.215,353.018z"/>
<path fill="#754C28" stroke="#231F20" stroke-miterlimit="10" d="M377.568,174.339c0,0-7.979-7.222-12.531-8.381
	s-20.342-2.831-24.497-1.72s-10.456,2.075-14.055,5.264s-4.964,4.059-7.585,5.275c-2.622,1.216-6.641,3.735-7.266,6.46
	c-0.625,2.724,2.042,4.598,3.427,6.063c1.385,1.465,4.063,5.291,5.379,6.052c1.317,0.761,7.673,4.054,13.314,5.463
	s25.655,2.674,31.66,0.496C371.421,197.133,381.821,190.801,377.568,174.339z"/>
<path fill="#231F20" stroke="#231F20" stroke-miterlimit="10" d="M317.367,181.749c0,0-1.685,6.721-3.561,4.321
	c-1.875-2.4-3.898-5.009-0.43-7.61C316.844,175.861,317.367,181.749,317.367,181.749z"/>
<path fill="none" stroke="#231F20" stroke-linecap="round" stroke-miterlimit="10" d="M331.023,195.447
	c0,0-8.262,0.249-10.583-2.096"/>
<path fill="none" stroke="#231F20" stroke-linecap="round" stroke-miterlimit="10" d="M329.84,189.824
	c0,0,10.032-2.162,13.875-0.292c3.843,1.87,6.631,7.62,8.433,10.94"/>
<path fill="#D0D2D3" stroke="#231F20" stroke-miterlimit="10" d="M338.133,179.352c-0.084-0.884,8.974-6.692,12.438-3.933
	c2.06,1.641,2.525,3.29,2.152,5.013c-0.576,2.664-3.75,4.415-6.675,3.506C343.34,183.095,338.34,181.518,338.133,179.352z"/>
<path fill="#603813" d="M286.829,229.311c-0.736,1.808-3.229,2.501-5.568,1.548l0,0c-2.339-0.953-3.638-3.19-2.902-4.998
	l38.754-95.152c0.736-1.808,3.229-2.501,5.568-1.548l0,0c2.339,0.953,3.638,3.19,2.902,4.998L286.829,229.311z"/>
<polygon fill="#231F20" stroke="#231F20" stroke-miterlimit="10" points="340.341,143.706 303.2,128.579 307.661,117.626 
	335.591,129.002 342.208,139.121 "/>
<path fill="#231F20" stroke="#231F20" stroke-miterlimit="10" d="M352.235,180.515c0.091-1.998-1.242-5.396-4.432-5.433
	c-4.257-0.049-5.346,2.18-5.467,4.08c-0.177,2.77,1.366,3.555,3.347,4.54C347.665,184.685,352.149,182.388,352.235,180.515z"/>
<path fill="#8A5D3B" stroke="#231F20" stroke-miterlimit="10" d="M299.161,211.424c0,0-5.449-4.772-8.963-4.435
	s-2.277-1.036-6.189,0.67s-5.03,1.711-5.132,4.171s-2.207,4.459,1.269,8.145c3.476,3.686,10.869,4.528,12.772,6.32
	c1.903,1.792,11.425,22.961,16.173,27.263c4.748,4.302,26.135,24.365,44.978,5.658c18.843-18.707,1.391-48.263-8.006-49.566
	s-12.589,16.677-22.875,13.662C312.901,220.298,307.745,220.57,299.161,211.424z"/>
<path fill="#A87C4F" stroke="#231F20" stroke-miterlimit="10" d="M456.511,208.159c6.328,1.109,27-8.108-12.75-29.608
	s-69.634,3.748-73.236,10.701s-6.645,26.406,6.192,45.549c6.897,10.284,23.497,14.606,35.33,28.688
	c17.596,20.943,0.592,71.534-2.582,79.278c-3.174,7.745-2.36,13.432,2.445,14.466c4.805,1.034,41.055-38.51,45.305-64.979
	c2.926-18.22-7.958-42.163-28.708-58.913c-13.887-11.21-28.667-21.512-25.745-31.175
	C405.005,194.746,451.157,207.221,456.511,208.159z"/>
<linearGradient id="SVGID_1_" gradientUnits="userSpaceOnUse" x1="156.6982" y1="304.9259" x2="263.3648" y2="304.9259">
	<stop  offset="0.0269" style="stop-color:#8A5D3B"/>
	<stop  offset="0.2527" style="stop-color:#603813"/>
	<stop  offset="0.7258" style="stop-color:#643C16"/>
	<stop  offset="1" style="stop-color:#8A5D3B"/>
</linearGradient>
<path fill="url(#SVGID_1_)" stroke="#3B2314" stroke-miterlimit="10" d="M263.365,307.531c0,29.029-23.878,52.562-53.333,52.562
	s-53.333-23.533-53.333-52.562c0-29.029,40.333-57.772,53.333-57.772C220.032,249.76,263.365,278.502,263.365,307.531z"/>
<path fill="none" stroke="#3B2314" stroke-miterlimit="10" d="M253.215,307.518c0,29.029-13.728,52.574-43.183,52.574
	s-44.067-22.545-44.067-51.574c0-29.029,31.067-58.759,44.067-58.759C220.032,249.76,253.215,278.489,253.215,307.518z"/>
<path fill="none" stroke="#3B2314" stroke-miterlimit="10" d="M245.715,308.518c0,29.029-6.228,51.574-35.683,51.574
	s-33.317-22.795-33.317-51.824c0-29.029,20.317-58.509,33.317-58.509C220.032,249.76,245.715,279.489,245.715,308.518z"/>
<path fill="none" stroke="#3B2314" stroke-miterlimit="10" d="M233.068,308.518c0,29.029-4.106,51.574-23.524,51.574
	s-21.964-22.795-21.964-51.824c0-29.029,13.394-58.509,21.964-58.509C216.137,249.76,233.068,279.489,233.068,308.518z"/>
<path fill="none" stroke="#3B2314" stroke-miterlimit="10" d="M222.751,308.518c0,29.029-2.219,51.574-12.715,51.574
	s-11.871-22.795-11.871-51.824c0-29.029,7.239-58.509,11.871-58.509C213.6,249.76,222.751,279.489,222.751,308.518z"/>
<path fill="#603813" stroke="#231F20" stroke-miterlimit="10" d="M374.965,357.768c-1.503,1.435-6.25,2.5-8,2.25s-4.5-1.732-6-1.116
	c-1.5,0.616-5.25,0.651-7.25,1.134c-2,0.482-3.25-2.268-4.5-2.268s-7.5,1.25-9,0s-3.563-2.499-4-3.195
	c-0.583-0.926,1.31-3.393,5.291-5.305c3.981-1.912,13.959,3.75,19.959,0s-26.25-39,2.5-65.25s43.5,38.5,47.25,43.5
	s0.695,29.716,0,30c-5.448,2.224-26.131,4.153-30-0.5C378.215,353.411,376.103,356.681,374.965,357.768z"/>
<path fill="none" stroke="#231F20" stroke-linecap="round" stroke-miterlimit="10" d="M380.671,302.768c0,0-1.417-2.877-4.207,0
	c-2.667,2.75-10.333,18.583-3.85,35.472c1.483,3.863,9.861,15.478,6.494,17.029"/>
<path fill="none" stroke="#231F20" stroke-linecap="round" stroke-miterlimit="10" d="M353.215,352.518
	c-0.449,1.045-15.958,0.378-17,2.055"/>
<path fill="none" stroke="#231F20" stroke-linecap="round" stroke-miterlimit="10" d="M362.84,353.527c0,0-11.75,2.223-13.625,4.241
	"/>
<path fill="none" stroke="#231F20" stroke-linecap="round" stroke-miterlimit="10" d="M373.465,353.018
	c0,0-8.679,3.368-11.402,5.747"/>
<path fill="none" stroke="#231F20" stroke-linecap="round" stroke-miterlimit="10" d="M339.132,347.518c0,0-8.306-0.364-9.223-1.881
	"/>
<path fill="none" stroke="#231F20" stroke-linecap="round" stroke-miterlimit="10" d="M335.982,350.018
	c0,0-12.338-0.179-13.351-2.06"/>
<path fill="none" stroke="#231F20" stroke-miterlimit="10" d="M333.131,351.185"/>
<path fill="none" stroke="#231F20" stroke-linecap="round" stroke-linejoin="bevel" stroke-miterlimit="10" d="M293.798,212.685
	c0,0-9.631-3.846-11.18-4.436"/>
<path fill="none" stroke="#231F20" stroke-linecap="round" stroke-linejoin="bevel" stroke-miterlimit="10" d="M291.465,216.185
	c0,0-11.842-4.376-12.588-4.354"/>
<path fill="none" stroke="#231F20" stroke-linecap="round" stroke-linejoin="bevel" stroke-miterlimit="10" d="M290.141,220.518
	c0,0-10.79-2.5-11.645-3.167"/>
<path fill="#8A5D3B" stroke="#231F20" stroke-miterlimit="10" d="M363.295,173.999c0,0,8.217-13.717,13.016-16.035
	c4.799-2.318,4.424,0.392,3.786,6.795s-5.797,18.193-8.14,20.455C369.614,187.474,369.396,178.036,363.295,173.999z"/>
<path fill="none" stroke="#3B2314" stroke-miterlimit="10" d="M209.902,249.759c0,0,0.313,104.408-0.938,110.333"/>
<path fill="#8A5D3B" d="M256.861,333.706c0,4.298-17.749,27.063-47.204,27.063s-48.254-23.125-48.254-30.813
	c0-1.639,20.799,11.646,50.254,11.646S256.861,331.878,256.861,333.706z"/>
</svg>
